# xmcd CD database file
#
# Track frame offsets:
#	150
#	15867
#	34402
#	52932
#	74723
#	92540
#	117034
#	127923
#	148744
#	165822
#	186441
#	203683
#	219183
#
# Disc length: 3147 seconds
#
# Revision: 1
# Processed by: cddbd v1.5.2PL0 Copyright (c) Steve Scherf et al.
# Submitted via: CDex 1.70beta3
#
DISCID=a80c490d
DTITLE=J. D. Souther - Natural History
DYEAR=2011
DGENRE=West Coast Rock
TTITLE0=Go Ahead And Rain
TTITLE1=Faithless Love
TTITLE2=You're Only Lonely
TTITLE3=The Sad Café
TTITLE4=Silver Blue
TTITLE5=New Kid In Town
TTITLE6=I'll Take Care Of You
TTITLE7=Little Victories
TTITLE8=Prisoner In Disguise
TTITLE9=Best Of My Love
TTITLE10=I'll Be Here At Closing Time
TTITLE11=How Long (Bonus Tracks)
TTITLE12=Heartache Tonight (Bonus Tracks)
EXTD=YEAR: 2011
EXTT0=
EXTT1=
EXTT2=
EXTT3=
EXTT4=
EXTT5=
EXTT6=
EXTT7=
EXTT8=
EXTT9=
EXTT10=
EXTT11=
EXTT12=
PLAYORDER=
